<mxfile host="app.diagrams.net" modified="2023-11-07T21:11:08.803Z" agent="Mozilla/5.0 (Macintosh; Intel Mac OS X 10_15_7) AppleWebKit/537.36 (KHTML, like Gecko) Chrome/119.0.0.0 Safari/537.36" etag="Z1vki2l6PtTjyOw4e0La" version="22.0.8" type="github">
  <diagram id="C5RBs43oDa-KdzZeNtuy" name="Page-1">
    <mxGraphModel dx="4380" dy="1506" grid="1" gridSize="10" guides="1" tooltips="1" connect="1" arrows="1" fold="1" page="1" pageScale="1" pageWidth="827" pageHeight="1169" math="0" shadow="0">
      <root>
        <mxCell id="WIyWlLk6GJQsqaUBKTNV-0" />
        <mxCell id="WIyWlLk6GJQsqaUBKTNV-1" parent="WIyWlLk6GJQsqaUBKTNV-0" />
        <mxCell id="MXmRCYiBRtFGxYg-QBdG-33" value="" style="rounded=1;whiteSpace=wrap;html=1;" vertex="1" parent="WIyWlLk6GJQsqaUBKTNV-1">
          <mxGeometry x="-1420" y="700" width="580" height="320" as="geometry" />
        </mxCell>
        <mxCell id="MXmRCYiBRtFGxYg-QBdG-16" value="" style="rounded=1;whiteSpace=wrap;html=1;" vertex="1" parent="WIyWlLk6GJQsqaUBKTNV-1">
          <mxGeometry x="-740" y="555" width="600" height="425" as="geometry" />
        </mxCell>
        <mxCell id="DgIrEv0hFCFQkbHtoArC-39" value="" style="rounded=1;whiteSpace=wrap;html=1;" parent="WIyWlLk6GJQsqaUBKTNV-1" vertex="1">
          <mxGeometry x="-1330" y="160" width="373" height="410" as="geometry" />
        </mxCell>
        <mxCell id="DgIrEv0hFCFQkbHtoArC-37" value="" style="rounded=1;whiteSpace=wrap;html=1;" parent="WIyWlLk6GJQsqaUBKTNV-1" vertex="1">
          <mxGeometry x="100" y="150" width="640" height="660" as="geometry" />
        </mxCell>
        <mxCell id="WIyWlLk6GJQsqaUBKTNV-2" value="" style="rounded=0;html=1;jettySize=auto;orthogonalLoop=1;fontSize=11;endArrow=block;endFill=0;endSize=8;strokeWidth=1;shadow=0;labelBackgroundColor=none;edgeStyle=orthogonalEdgeStyle;" parent="WIyWlLk6GJQsqaUBKTNV-1" source="WIyWlLk6GJQsqaUBKTNV-3" target="WIyWlLk6GJQsqaUBKTNV-6" edge="1">
          <mxGeometry relative="1" as="geometry" />
        </mxCell>
        <mxCell id="WIyWlLk6GJQsqaUBKTNV-3" value="enter server address&lt;br&gt;&lt;b&gt;dev1.photopixels.io&lt;/b&gt;" style="rounded=1;whiteSpace=wrap;html=1;fontSize=12;glass=0;strokeWidth=1;shadow=0;fillColor=#f8cecc;strokeColor=#b85450;" parent="WIyWlLk6GJQsqaUBKTNV-1" vertex="1">
          <mxGeometry x="-1270" y="210" width="120" height="40" as="geometry" />
        </mxCell>
        <mxCell id="WIyWlLk6GJQsqaUBKTNV-4" value="Yes" style="rounded=0;html=1;jettySize=auto;orthogonalLoop=1;fontSize=11;endArrow=block;endFill=0;endSize=8;strokeWidth=1;shadow=0;labelBackgroundColor=none;edgeStyle=orthogonalEdgeStyle;" parent="WIyWlLk6GJQsqaUBKTNV-1" source="WIyWlLk6GJQsqaUBKTNV-6" edge="1">
          <mxGeometry y="20" relative="1" as="geometry">
            <mxPoint as="offset" />
            <mxPoint x="-1080" y="430" as="targetPoint" />
          </mxGeometry>
        </mxCell>
        <mxCell id="WIyWlLk6GJQsqaUBKTNV-5" value="No" style="edgeStyle=orthogonalEdgeStyle;rounded=0;html=1;jettySize=auto;orthogonalLoop=1;fontSize=11;endArrow=block;endFill=0;endSize=8;strokeWidth=1;shadow=0;labelBackgroundColor=none;" parent="WIyWlLk6GJQsqaUBKTNV-1" source="WIyWlLk6GJQsqaUBKTNV-6" edge="1">
          <mxGeometry y="10" relative="1" as="geometry">
            <mxPoint as="offset" />
            <mxPoint x="-1220" y="260" as="targetPoint" />
            <Array as="points">
              <mxPoint x="-1124" y="305" />
              <mxPoint x="-1124" y="281" />
            </Array>
          </mxGeometry>
        </mxCell>
        <mxCell id="WIyWlLk6GJQsqaUBKTNV-6" value="&lt;font size=&quot;1&quot; style=&quot;&quot;&gt;&lt;b style=&quot;font-size: 9px;&quot;&gt;VALIDATE SERVER&lt;/b&gt;&lt;/font&gt;" style="rhombus;whiteSpace=wrap;html=1;shadow=0;fontFamily=Helvetica;fontSize=12;align=center;strokeWidth=1;spacing=6;spacingTop=-4;fillColor=#f8cecc;strokeColor=#b85450;" parent="WIyWlLk6GJQsqaUBKTNV-1" vertex="1">
          <mxGeometry x="-1100" y="260" width="100" height="90" as="geometry" />
        </mxCell>
        <mxCell id="WIyWlLk6GJQsqaUBKTNV-8" value="No" style="rounded=0;html=1;jettySize=auto;orthogonalLoop=1;fontSize=11;endArrow=block;endFill=0;endSize=8;strokeWidth=1;shadow=0;labelBackgroundColor=none;edgeStyle=orthogonalEdgeStyle;" parent="WIyWlLk6GJQsqaUBKTNV-1" target="WIyWlLk6GJQsqaUBKTNV-11" edge="1">
          <mxGeometry x="0.3333" y="20" relative="1" as="geometry">
            <mxPoint as="offset" />
            <mxPoint x="-1080" y="510" as="sourcePoint" />
            <Array as="points">
              <mxPoint x="-1080" y="470" />
              <mxPoint x="-1080" y="470" />
            </Array>
          </mxGeometry>
        </mxCell>
        <mxCell id="WIyWlLk6GJQsqaUBKTNV-9" value="login successful" style="edgeStyle=orthogonalEdgeStyle;rounded=0;html=1;jettySize=auto;orthogonalLoop=1;fontSize=11;endArrow=block;endFill=0;endSize=8;strokeWidth=1;shadow=0;labelBackgroundColor=none;exitX=1;exitY=0.5;exitDx=0;exitDy=0;" parent="WIyWlLk6GJQsqaUBKTNV-1" source="DgIrEv0hFCFQkbHtoArC-0" target="WIyWlLk6GJQsqaUBKTNV-12" edge="1">
          <mxGeometry y="10" relative="1" as="geometry">
            <mxPoint as="offset" />
            <mxPoint x="240" y="480" as="sourcePoint" />
            <Array as="points">
              <mxPoint x="250" y="510" />
              <mxPoint x="340" y="510" />
            </Array>
          </mxGeometry>
        </mxCell>
        <mxCell id="DgIrEv0hFCFQkbHtoArC-1" style="edgeStyle=orthogonalEdgeStyle;rounded=0;orthogonalLoop=1;jettySize=auto;html=1;entryX=0;entryY=0.5;entryDx=0;entryDy=0;" parent="WIyWlLk6GJQsqaUBKTNV-1" source="WIyWlLk6GJQsqaUBKTNV-11" target="DgIrEv0hFCFQkbHtoArC-0" edge="1">
          <mxGeometry relative="1" as="geometry" />
        </mxCell>
        <mxCell id="WIyWlLk6GJQsqaUBKTNV-11" value="&lt;font style=&quot;font-size: 7px;&quot;&gt;show error&lt;/font&gt;" style="rounded=1;whiteSpace=wrap;html=1;fontSize=12;glass=0;strokeWidth=1;shadow=0;fillColor=#dae8fc;strokeColor=#6c8ebf;" parent="WIyWlLk6GJQsqaUBKTNV-1" vertex="1">
          <mxGeometry x="-1140" y="500" width="60" height="10" as="geometry" />
        </mxCell>
        <mxCell id="WIyWlLk6GJQsqaUBKTNV-12" value="&lt;font style=&quot;font-size: 10px;&quot;&gt;ask for revision (initial will be 0) / get list of delta of &lt;b&gt;added/deleted&lt;/b&gt; photos&lt;/font&gt;" style="rounded=1;whiteSpace=wrap;html=1;fontSize=12;glass=0;strokeWidth=1;shadow=0;fillColor=#99FFCC;" parent="WIyWlLk6GJQsqaUBKTNV-1" vertex="1">
          <mxGeometry x="160" y="490" width="170" height="50" as="geometry" />
        </mxCell>
        <mxCell id="DgIrEv0hFCFQkbHtoArC-0" value="ask for username/pass" style="rounded=1;whiteSpace=wrap;html=1;fontSize=12;glass=0;strokeWidth=1;shadow=0;fontStyle=1;fillColor=#fff2cc;strokeColor=#d6b656;" parent="WIyWlLk6GJQsqaUBKTNV-1" vertex="1">
          <mxGeometry x="-1140" y="430" width="120" height="40" as="geometry" />
        </mxCell>
        <mxCell id="DgIrEv0hFCFQkbHtoArC-10" style="edgeStyle=orthogonalEdgeStyle;rounded=0;orthogonalLoop=1;jettySize=auto;html=1;exitX=0.75;exitY=0;exitDx=0;exitDy=0;" parent="WIyWlLk6GJQsqaUBKTNV-1" source="WIyWlLk6GJQsqaUBKTNV-12" edge="1">
          <mxGeometry relative="1" as="geometry">
            <mxPoint x="320" y="440" as="targetPoint" />
          </mxGeometry>
        </mxCell>
        <mxCell id="DgIrEv0hFCFQkbHtoArC-14" value="" style="group;fillColor=#99FFCC;" parent="WIyWlLk6GJQsqaUBKTNV-1" vertex="1" connectable="0">
          <mxGeometry x="210" y="330" width="120" height="90" as="geometry" />
        </mxCell>
        <mxCell id="DgIrEv0hFCFQkbHtoArC-2" value="serverId" style="swimlane;fontStyle=0;childLayout=stackLayout;horizontal=1;startSize=30;horizontalStack=0;resizeParent=1;resizeParentMax=0;resizeLast=0;collapsible=1;marginBottom=0;whiteSpace=wrap;html=1;fontSize=8;fillColor=#99FFCC;strokeColor=none;" parent="DgIrEv0hFCFQkbHtoArC-14" vertex="1">
          <mxGeometry width="60" height="79.48351580379787" as="geometry">
            <mxRectangle y="25" width="70" height="30" as="alternateBounds" />
          </mxGeometry>
        </mxCell>
        <mxCell id="DgIrEv0hFCFQkbHtoArC-5" value="serverId_003" style="text;strokeColor=none;fillColor=#99FFCC;align=left;verticalAlign=middle;spacingLeft=4;spacingRight=4;overflow=hidden;points=[[0,0.5],[1,0.5]];portConstraint=eastwest;rotatable=0;whiteSpace=wrap;html=1;fontSize=7;" parent="DgIrEv0hFCFQkbHtoArC-2" vertex="1">
          <mxGeometry y="30" width="60" height="18.5563184264242" as="geometry" />
        </mxCell>
        <mxCell id="DgIrEv0hFCFQkbHtoArC-13" value="" style="group;fillColor=#99FFCC;" parent="DgIrEv0hFCFQkbHtoArC-2" vertex="1" connectable="0">
          <mxGeometry y="48.5563184264242" width="60" height="30.927197377373666" as="geometry" />
        </mxCell>
        <mxCell id="DgIrEv0hFCFQkbHtoArC-3" value="serverId_001" style="text;strokeColor=none;fillColor=#99FFCC;align=left;verticalAlign=middle;spacingLeft=4;spacingRight=4;overflow=hidden;points=[[0,0.5],[1,0.5]];portConstraint=eastwest;rotatable=0;whiteSpace=wrap;html=1;fontSize=7;" parent="DgIrEv0hFCFQkbHtoArC-13" vertex="1">
          <mxGeometry width="60" height="12.370878950949466" as="geometry" />
        </mxCell>
        <mxCell id="DgIrEv0hFCFQkbHtoArC-4" value="serverId_002" style="text;strokeColor=none;fillColor=#99FFCC;align=left;verticalAlign=middle;spacingLeft=4;spacingRight=4;overflow=hidden;points=[[0,0.5],[1,0.5]];portConstraint=eastwest;rotatable=0;whiteSpace=wrap;html=1;fontSize=7;" parent="DgIrEv0hFCFQkbHtoArC-13" vertex="1">
          <mxGeometry y="12.370878950949466" width="60" height="18.5563184264242" as="geometry" />
        </mxCell>
        <mxCell id="DgIrEv0hFCFQkbHtoArC-6" value="timestamp" style="swimlane;fontStyle=0;childLayout=stackLayout;horizontal=1;startSize=30;horizontalStack=0;resizeParent=1;resizeParentMax=0;resizeLast=0;collapsible=1;marginBottom=0;whiteSpace=wrap;html=1;fontSize=8;fillColor=#99FFCC;strokeColor=none;" parent="DgIrEv0hFCFQkbHtoArC-14" vertex="1">
          <mxGeometry x="60" width="60" height="79.48351580379786" as="geometry" />
        </mxCell>
        <mxCell id="DgIrEv0hFCFQkbHtoArC-7" value="106767673&lt;br&gt;" style="text;strokeColor=none;fillColor=#99FFCC;align=left;verticalAlign=middle;spacingLeft=4;spacingRight=4;overflow=hidden;points=[[0,0.5],[1,0.5]];portConstraint=eastwest;rotatable=0;whiteSpace=wrap;html=1;fontSize=7;" parent="DgIrEv0hFCFQkbHtoArC-6" vertex="1">
          <mxGeometry y="30" width="60" height="12.370878950949464" as="geometry" />
        </mxCell>
        <mxCell id="DgIrEv0hFCFQkbHtoArC-8" value="1035666325" style="text;strokeColor=none;fillColor=#99FFCC;align=left;verticalAlign=middle;spacingLeft=4;spacingRight=4;overflow=hidden;points=[[0,0.5],[1,0.5]];portConstraint=eastwest;rotatable=0;whiteSpace=wrap;html=1;fontSize=7;" parent="DgIrEv0hFCFQkbHtoArC-6" vertex="1">
          <mxGeometry y="42.37087895094946" width="60" height="18.5563184264242" as="geometry" />
        </mxCell>
        <mxCell id="DgIrEv0hFCFQkbHtoArC-9" value="1036736766" style="text;strokeColor=none;fillColor=#99FFCC;align=left;verticalAlign=middle;spacingLeft=4;spacingRight=4;overflow=hidden;points=[[0,0.5],[1,0.5]];portConstraint=eastwest;rotatable=0;whiteSpace=wrap;html=1;fontSize=7;" parent="DgIrEv0hFCFQkbHtoArC-6" vertex="1">
          <mxGeometry y="60.92719737737366" width="60" height="18.5563184264242" as="geometry" />
        </mxCell>
        <mxCell id="DgIrEv0hFCFQkbHtoArC-17" style="edgeStyle=orthogonalEdgeStyle;rounded=0;orthogonalLoop=1;jettySize=auto;html=1;" parent="WIyWlLk6GJQsqaUBKTNV-1" source="DgIrEv0hFCFQkbHtoArC-7" edge="1">
          <mxGeometry relative="1" as="geometry">
            <mxPoint x="370" y="375" as="targetPoint" />
          </mxGeometry>
        </mxCell>
        <mxCell id="DgIrEv0hFCFQkbHtoArC-18" style="edgeStyle=orthogonalEdgeStyle;rounded=0;orthogonalLoop=1;jettySize=auto;html=1;exitX=1;exitY=0.5;exitDx=0;exitDy=0;entryX=0;entryY=0.667;entryDx=0;entryDy=0;entryPerimeter=0;" parent="WIyWlLk6GJQsqaUBKTNV-1" source="DgIrEv0hFCFQkbHtoArC-8" edge="1">
          <mxGeometry relative="1" as="geometry">
            <mxPoint x="370" y="386.69000000000005" as="targetPoint" />
          </mxGeometry>
        </mxCell>
        <mxCell id="DgIrEv0hFCFQkbHtoArC-19" style="edgeStyle=orthogonalEdgeStyle;rounded=0;orthogonalLoop=1;jettySize=auto;html=1;exitX=1;exitY=0.5;exitDx=0;exitDy=0;entryX=0;entryY=0.75;entryDx=0;entryDy=0;" parent="WIyWlLk6GJQsqaUBKTNV-1" source="DgIrEv0hFCFQkbHtoArC-9" edge="1">
          <mxGeometry relative="1" as="geometry">
            <mxPoint x="378.33333333333326" y="389.58333333333337" as="targetPoint" />
          </mxGeometry>
        </mxCell>
        <mxCell id="DgIrEv0hFCFQkbHtoArC-23" style="edgeStyle=orthogonalEdgeStyle;rounded=0;orthogonalLoop=1;jettySize=auto;html=1;" parent="WIyWlLk6GJQsqaUBKTNV-1" source="DgIrEv0hFCFQkbHtoArC-20" target="DgIrEv0hFCFQkbHtoArC-22" edge="1">
          <mxGeometry relative="1" as="geometry" />
        </mxCell>
        <mxCell id="DgIrEv0hFCFQkbHtoArC-33" style="edgeStyle=orthogonalEdgeStyle;rounded=0;orthogonalLoop=1;jettySize=auto;html=1;entryX=1;entryY=0.5;entryDx=0;entryDy=0;" parent="WIyWlLk6GJQsqaUBKTNV-1" source="DgIrEv0hFCFQkbHtoArC-20" target="DgIrEv0hFCFQkbHtoArC-30" edge="1">
          <mxGeometry relative="1" as="geometry" />
        </mxCell>
        <mxCell id="DgIrEv0hFCFQkbHtoArC-20" value="LOCAL DB" style="rhombus;whiteSpace=wrap;html=1;fillColor=#99FFCC;" parent="WIyWlLk6GJQsqaUBKTNV-1" vertex="1">
          <mxGeometry x="390" y="340" width="80" height="80" as="geometry" />
        </mxCell>
        <mxCell id="DgIrEv0hFCFQkbHtoArC-26" style="edgeStyle=orthogonalEdgeStyle;rounded=0;orthogonalLoop=1;jettySize=auto;html=1;entryX=0.5;entryY=0;entryDx=0;entryDy=0;" parent="WIyWlLk6GJQsqaUBKTNV-1" source="DgIrEv0hFCFQkbHtoArC-22" target="DgIrEv0hFCFQkbHtoArC-20" edge="1">
          <mxGeometry relative="1" as="geometry" />
        </mxCell>
        <mxCell id="DgIrEv0hFCFQkbHtoArC-32" style="edgeStyle=orthogonalEdgeStyle;rounded=0;orthogonalLoop=1;jettySize=auto;html=1;exitX=0.75;exitY=1;exitDx=0;exitDy=0;entryX=0.5;entryY=0;entryDx=0;entryDy=0;" parent="WIyWlLk6GJQsqaUBKTNV-1" source="DgIrEv0hFCFQkbHtoArC-22" target="DgIrEv0hFCFQkbHtoArC-31" edge="1">
          <mxGeometry relative="1" as="geometry" />
        </mxCell>
        <mxCell id="DgIrEv0hFCFQkbHtoArC-22" value="for each in added map,download thumbnail and related metadata(width height, cloudid etc), save these in db as well for each item" style="rounded=1;whiteSpace=wrap;html=1;fillColor=#CCFFCC;" parent="WIyWlLk6GJQsqaUBKTNV-1" vertex="1">
          <mxGeometry x="480" y="220" width="120" height="110" as="geometry" />
        </mxCell>
        <mxCell id="DgIrEv0hFCFQkbHtoArC-35" style="edgeStyle=orthogonalEdgeStyle;rounded=0;orthogonalLoop=1;jettySize=auto;html=1;" parent="WIyWlLk6GJQsqaUBKTNV-1" source="DgIrEv0hFCFQkbHtoArC-30" edge="1">
          <mxGeometry relative="1" as="geometry">
            <mxPoint x="430" y="430" as="targetPoint" />
          </mxGeometry>
        </mxCell>
        <mxCell id="DgIrEv0hFCFQkbHtoArC-30" value=", check if got them previously with &#39;added&#39; list and thumbnails info while rresolving the klatest revision? if we already have some, just update them in db with extra local info! IF we dont have them, create new entries with local only info" style="rounded=1;whiteSpace=wrap;html=1;fillColor=#33FF99;" parent="WIyWlLk6GJQsqaUBKTNV-1" vertex="1">
          <mxGeometry x="500" y="550" width="120" height="190" as="geometry" />
        </mxCell>
        <mxCell id="DgIrEv0hFCFQkbHtoArC-34" style="edgeStyle=orthogonalEdgeStyle;rounded=0;orthogonalLoop=1;jettySize=auto;html=1;entryX=0.5;entryY=0;entryDx=0;entryDy=0;" parent="WIyWlLk6GJQsqaUBKTNV-1" source="DgIrEv0hFCFQkbHtoArC-31" target="DgIrEv0hFCFQkbHtoArC-30" edge="1">
          <mxGeometry relative="1" as="geometry" />
        </mxCell>
        <mxCell id="DgIrEv0hFCFQkbHtoArC-31" value="check user default photo library, get cloud ids&amp;nbsp;" style="rounded=1;whiteSpace=wrap;html=1;fillColor=#99FFCC;" parent="WIyWlLk6GJQsqaUBKTNV-1" vertex="1">
          <mxGeometry x="500" y="450" width="120" height="60" as="geometry" />
        </mxCell>
        <mxCell id="DgIrEv0hFCFQkbHtoArC-36" value="added" style="text;html=1;strokeColor=none;fillColor=none;align=center;verticalAlign=middle;whiteSpace=wrap;rounded=0;" parent="WIyWlLk6GJQsqaUBKTNV-1" vertex="1">
          <mxGeometry x="200" y="300" width="100" height="30" as="geometry" />
        </mxCell>
        <mxCell id="DgIrEv0hFCFQkbHtoArC-38" value="&lt;h1&gt;Handling Revisions&lt;/h1&gt;&lt;p&gt;This will happen very often, likely on app start and activation&lt;/p&gt;" style="text;html=1;strokeColor=none;fillColor=none;spacing=5;spacingTop=-20;whiteSpace=wrap;overflow=hidden;rounded=0;" parent="WIyWlLk6GJQsqaUBKTNV-1" vertex="1">
          <mxGeometry x="160" y="650" width="190" height="120" as="geometry" />
        </mxCell>
        <mxCell id="DgIrEv0hFCFQkbHtoArC-40" value="&lt;h1&gt;Server Setup/Login&lt;/h1&gt;&lt;p&gt;At the very start of the app, user sets up his server that runs our backend logic.&lt;/p&gt;" style="text;html=1;strokeColor=none;fillColor=none;spacing=5;spacingTop=-20;whiteSpace=wrap;overflow=hidden;rounded=0;" parent="WIyWlLk6GJQsqaUBKTNV-1" vertex="1">
          <mxGeometry x="-1305" y="320" width="190" height="120" as="geometry" />
        </mxCell>
        <mxCell id="MXmRCYiBRtFGxYg-QBdG-2" style="edgeStyle=orthogonalEdgeStyle;rounded=0;orthogonalLoop=1;jettySize=auto;html=1;entryX=0.5;entryY=1;entryDx=0;entryDy=0;" edge="1" parent="WIyWlLk6GJQsqaUBKTNV-1" source="MXmRCYiBRtFGxYg-QBdG-0" target="MXmRCYiBRtFGxYg-QBdG-1">
          <mxGeometry relative="1" as="geometry" />
        </mxCell>
        <mxCell id="MXmRCYiBRtFGxYg-QBdG-4" style="edgeStyle=orthogonalEdgeStyle;rounded=0;orthogonalLoop=1;jettySize=auto;html=1;exitX=1;exitY=0.5;exitDx=0;exitDy=0;entryX=0;entryY=0.5;entryDx=0;entryDy=0;" edge="1" parent="WIyWlLk6GJQsqaUBKTNV-1" source="MXmRCYiBRtFGxYg-QBdG-0" target="MXmRCYiBRtFGxYg-QBdG-3">
          <mxGeometry relative="1" as="geometry" />
        </mxCell>
        <mxCell id="MXmRCYiBRtFGxYg-QBdG-7" style="edgeStyle=orthogonalEdgeStyle;rounded=0;orthogonalLoop=1;jettySize=auto;html=1;" edge="1" parent="WIyWlLk6GJQsqaUBKTNV-1" source="MXmRCYiBRtFGxYg-QBdG-0">
          <mxGeometry relative="1" as="geometry">
            <mxPoint x="-557" y="765" as="targetPoint" />
          </mxGeometry>
        </mxCell>
        <mxCell id="MXmRCYiBRtFGxYg-QBdG-8" style="edgeStyle=orthogonalEdgeStyle;rounded=0;orthogonalLoop=1;jettySize=auto;html=1;entryX=0.5;entryY=0;entryDx=0;entryDy=0;" edge="1" parent="WIyWlLk6GJQsqaUBKTNV-1" source="MXmRCYiBRtFGxYg-QBdG-0" target="MXmRCYiBRtFGxYg-QBdG-5">
          <mxGeometry relative="1" as="geometry" />
        </mxCell>
        <mxCell id="MXmRCYiBRtFGxYg-QBdG-23" style="edgeStyle=orthogonalEdgeStyle;rounded=0;orthogonalLoop=1;jettySize=auto;html=1;exitX=0;exitY=1;exitDx=0;exitDy=0;entryX=1;entryY=0.25;entryDx=0;entryDy=0;" edge="1" parent="WIyWlLk6GJQsqaUBKTNV-1" source="MXmRCYiBRtFGxYg-QBdG-0" target="MXmRCYiBRtFGxYg-QBdG-22">
          <mxGeometry relative="1" as="geometry" />
        </mxCell>
        <mxCell id="MXmRCYiBRtFGxYg-QBdG-0" value="APP STATE" style="rhombus;whiteSpace=wrap;html=1;fillColor=#d5e8d4;strokeColor=#82b366;" vertex="1" parent="WIyWlLk6GJQsqaUBKTNV-1">
          <mxGeometry x="-506" y="705" width="112" height="120" as="geometry" />
        </mxCell>
        <mxCell id="MXmRCYiBRtFGxYg-QBdG-13" style="edgeStyle=orthogonalEdgeStyle;rounded=0;orthogonalLoop=1;jettySize=auto;html=1;entryX=1;entryY=0;entryDx=0;entryDy=0;" edge="1" parent="WIyWlLk6GJQsqaUBKTNV-1" source="MXmRCYiBRtFGxYg-QBdG-1" target="WIyWlLk6GJQsqaUBKTNV-3">
          <mxGeometry relative="1" as="geometry" />
        </mxCell>
        <mxCell id="MXmRCYiBRtFGxYg-QBdG-1" value="fresh install" style="rounded=1;whiteSpace=wrap;html=1;fillColor=#fff2cc;strokeColor=#d6b656;" vertex="1" parent="WIyWlLk6GJQsqaUBKTNV-1">
          <mxGeometry x="-510" y="590" width="120" height="60" as="geometry" />
        </mxCell>
        <mxCell id="MXmRCYiBRtFGxYg-QBdG-12" style="edgeStyle=orthogonalEdgeStyle;rounded=0;orthogonalLoop=1;jettySize=auto;html=1;entryX=1;entryY=0.5;entryDx=0;entryDy=0;fillColor=#f8cecc;strokeColor=#b85450;exitX=1;exitY=0.5;exitDx=0;exitDy=0;" edge="1" parent="WIyWlLk6GJQsqaUBKTNV-1" source="MXmRCYiBRtFGxYg-QBdG-19" target="DgIrEv0hFCFQkbHtoArC-0">
          <mxGeometry relative="1" as="geometry">
            <Array as="points">
              <mxPoint x="10" y="730" />
              <mxPoint x="10" y="450" />
            </Array>
          </mxGeometry>
        </mxCell>
        <mxCell id="MXmRCYiBRtFGxYg-QBdG-21" style="edgeStyle=orthogonalEdgeStyle;rounded=0;orthogonalLoop=1;jettySize=auto;html=1;" edge="1" parent="WIyWlLk6GJQsqaUBKTNV-1" source="MXmRCYiBRtFGxYg-QBdG-3" target="MXmRCYiBRtFGxYg-QBdG-19">
          <mxGeometry relative="1" as="geometry" />
        </mxCell>
        <mxCell id="MXmRCYiBRtFGxYg-QBdG-3" value="log out" style="rounded=1;whiteSpace=wrap;html=1;fillColor=#f8cecc;strokeColor=#b85450;" vertex="1" parent="WIyWlLk6GJQsqaUBKTNV-1">
          <mxGeometry x="-370" y="735" width="120" height="60" as="geometry" />
        </mxCell>
        <mxCell id="MXmRCYiBRtFGxYg-QBdG-38" style="edgeStyle=orthogonalEdgeStyle;rounded=0;orthogonalLoop=1;jettySize=auto;html=1;entryX=0;entryY=0.5;entryDx=0;entryDy=0;" edge="1" parent="WIyWlLk6GJQsqaUBKTNV-1" source="MXmRCYiBRtFGxYg-QBdG-5" target="MXmRCYiBRtFGxYg-QBdG-37">
          <mxGeometry relative="1" as="geometry">
            <Array as="points">
              <mxPoint x="-450" y="1010" />
              <mxPoint x="-1030" y="1010" />
              <mxPoint x="-1030" y="960" />
            </Array>
          </mxGeometry>
        </mxCell>
        <mxCell id="MXmRCYiBRtFGxYg-QBdG-5" value="restart /OR&amp;nbsp; being killed RESTARTED" style="rounded=1;whiteSpace=wrap;html=1;fillColor=#dae8fc;strokeColor=#6c8ebf;" vertex="1" parent="WIyWlLk6GJQsqaUBKTNV-1">
          <mxGeometry x="-510" y="880" width="120" height="60" as="geometry" />
        </mxCell>
        <mxCell id="MXmRCYiBRtFGxYg-QBdG-14" style="edgeStyle=orthogonalEdgeStyle;rounded=0;orthogonalLoop=1;jettySize=auto;html=1;entryX=0;entryY=0;entryDx=0;entryDy=0;fillColor=#d5e8d4;strokeColor=#82b366;" edge="1" parent="WIyWlLk6GJQsqaUBKTNV-1" source="MXmRCYiBRtFGxYg-QBdG-6" target="WIyWlLk6GJQsqaUBKTNV-12">
          <mxGeometry relative="1" as="geometry">
            <Array as="points">
              <mxPoint x="-620" y="470" />
              <mxPoint x="160" y="470" />
            </Array>
          </mxGeometry>
        </mxCell>
        <mxCell id="MXmRCYiBRtFGxYg-QBdG-6" value="becomes active" style="rounded=1;whiteSpace=wrap;html=1;fillColor=#6666FF;" vertex="1" parent="WIyWlLk6GJQsqaUBKTNV-1">
          <mxGeometry x="-680" y="735" width="120" height="60" as="geometry" />
        </mxCell>
        <mxCell id="MXmRCYiBRtFGxYg-QBdG-15" style="edgeStyle=orthogonalEdgeStyle;rounded=0;orthogonalLoop=1;jettySize=auto;html=1;entryX=0.416;entryY=1.007;entryDx=0;entryDy=0;entryPerimeter=0;fillColor=#e1d5e7;strokeColor=#9673a6;" edge="1" parent="WIyWlLk6GJQsqaUBKTNV-1" source="MXmRCYiBRtFGxYg-QBdG-5" target="WIyWlLk6GJQsqaUBKTNV-12">
          <mxGeometry relative="1" as="geometry" />
        </mxCell>
        <mxCell id="MXmRCYiBRtFGxYg-QBdG-19" value="RESET DB" style="rounded=1;whiteSpace=wrap;html=1;fillColor=#f8cecc;strokeColor=#b85450;" vertex="1" parent="WIyWlLk6GJQsqaUBKTNV-1">
          <mxGeometry x="-200" y="730" width="50" height="60" as="geometry" />
        </mxCell>
        <mxCell id="MXmRCYiBRtFGxYg-QBdG-34" style="edgeStyle=orthogonalEdgeStyle;rounded=0;orthogonalLoop=1;jettySize=auto;html=1;" edge="1" parent="WIyWlLk6GJQsqaUBKTNV-1" source="MXmRCYiBRtFGxYg-QBdG-22">
          <mxGeometry relative="1" as="geometry">
            <mxPoint x="-830" y="890" as="targetPoint" />
          </mxGeometry>
        </mxCell>
        <mxCell id="MXmRCYiBRtFGxYg-QBdG-22" value="GOES TO BACKGROUND" style="rounded=1;whiteSpace=wrap;html=1;fillColor=#e1d5e7;strokeColor=#9673a6;" vertex="1" parent="WIyWlLk6GJQsqaUBKTNV-1">
          <mxGeometry x="-690" y="870" width="120" height="60" as="geometry" />
        </mxCell>
        <mxCell id="MXmRCYiBRtFGxYg-QBdG-28" style="edgeStyle=orthogonalEdgeStyle;rounded=0;orthogonalLoop=1;jettySize=auto;html=1;entryX=1;entryY=0.5;entryDx=0;entryDy=0;" edge="1" parent="WIyWlLk6GJQsqaUBKTNV-1" source="MXmRCYiBRtFGxYg-QBdG-24" target="MXmRCYiBRtFGxYg-QBdG-25">
          <mxGeometry relative="1" as="geometry" />
        </mxCell>
        <mxCell id="MXmRCYiBRtFGxYg-QBdG-24" value="schedule back processing task" style="rounded=1;whiteSpace=wrap;html=1;fillColor=#e1d5e7;strokeColor=#9673a6;" vertex="1" parent="WIyWlLk6GJQsqaUBKTNV-1">
          <mxGeometry x="-1030" y="790" width="120" height="60" as="geometry" />
        </mxCell>
        <mxCell id="MXmRCYiBRtFGxYg-QBdG-29" style="edgeStyle=orthogonalEdgeStyle;rounded=0;orthogonalLoop=1;jettySize=auto;html=1;entryX=1;entryY=0.5;entryDx=0;entryDy=0;" edge="1" parent="WIyWlLk6GJQsqaUBKTNV-1" source="MXmRCYiBRtFGxYg-QBdG-25" target="MXmRCYiBRtFGxYg-QBdG-26">
          <mxGeometry relative="1" as="geometry" />
        </mxCell>
        <mxCell id="MXmRCYiBRtFGxYg-QBdG-25" value="TAKE FEW NOT UPLOADED ITEMS FROM DB" style="rounded=1;whiteSpace=wrap;html=1;fillColor=#e1d5e7;strokeColor=#9673a6;" vertex="1" parent="WIyWlLk6GJQsqaUBKTNV-1">
          <mxGeometry x="-1200" y="890" width="120" height="60" as="geometry" />
        </mxCell>
        <mxCell id="MXmRCYiBRtFGxYg-QBdG-32" style="edgeStyle=orthogonalEdgeStyle;rounded=0;orthogonalLoop=1;jettySize=auto;html=1;" edge="1" parent="WIyWlLk6GJQsqaUBKTNV-1" source="MXmRCYiBRtFGxYg-QBdG-26">
          <mxGeometry relative="1" as="geometry">
            <mxPoint x="-1310" y="830" as="targetPoint" />
          </mxGeometry>
        </mxCell>
        <mxCell id="MXmRCYiBRtFGxYg-QBdG-26" value="MAKE HASHES, PREPARE MULTPART BODY(AS FILE DUE TO LIMITATIONS)" style="rounded=1;whiteSpace=wrap;html=1;fillColor=#e1d5e7;strokeColor=#9673a6;" vertex="1" parent="WIyWlLk6GJQsqaUBKTNV-1">
          <mxGeometry x="-1370" y="875" width="120" height="90" as="geometry" />
        </mxCell>
        <mxCell id="MXmRCYiBRtFGxYg-QBdG-27" value="PASS TO SYSTEM SESSION TO HANDLE UPLOAD ( NO COMPLETION AVAILABLE DIRECTLY!" style="rounded=1;whiteSpace=wrap;html=1;fillColor=#e1d5e7;strokeColor=#9673a6;" vertex="1" parent="WIyWlLk6GJQsqaUBKTNV-1">
          <mxGeometry x="-1370" y="735" width="120" height="90" as="geometry" />
        </mxCell>
        <mxCell id="MXmRCYiBRtFGxYg-QBdG-40" style="edgeStyle=orthogonalEdgeStyle;rounded=0;orthogonalLoop=1;jettySize=auto;html=1;" edge="1" parent="WIyWlLk6GJQsqaUBKTNV-1" source="MXmRCYiBRtFGxYg-QBdG-37" target="MXmRCYiBRtFGxYg-QBdG-24">
          <mxGeometry relative="1" as="geometry" />
        </mxCell>
        <mxCell id="MXmRCYiBRtFGxYg-QBdG-37" value="REGISTER BACK TASK WITH ID IN APP DELEGATE" style="rounded=1;whiteSpace=wrap;html=1;fillColor=#e1d5e7;strokeColor=#9673a6;" vertex="1" parent="WIyWlLk6GJQsqaUBKTNV-1">
          <mxGeometry x="-1010" y="930" width="120" height="60" as="geometry" />
        </mxCell>
        <mxCell id="MXmRCYiBRtFGxYg-QBdG-41" value="&lt;h1&gt;BACKGROUND UPLOADS&lt;/h1&gt;" style="text;html=1;strokeColor=none;fillColor=none;spacing=5;spacingTop=-20;whiteSpace=wrap;overflow=hidden;rounded=0;" vertex="1" parent="WIyWlLk6GJQsqaUBKTNV-1">
          <mxGeometry x="-1235" y="730" width="190" height="120" as="geometry" />
        </mxCell>
        <mxCell id="MXmRCYiBRtFGxYg-QBdG-42" value="&lt;h1&gt;APP STATES&lt;/h1&gt;" style="text;html=1;strokeColor=none;fillColor=none;spacing=5;spacingTop=-20;whiteSpace=wrap;overflow=hidden;rounded=0;" vertex="1" parent="WIyWlLk6GJQsqaUBKTNV-1">
          <mxGeometry x="-350" y="590" width="190" height="120" as="geometry" />
        </mxCell>
      </root>
    </mxGraphModel>
  </diagram>
</mxfile>
